<mxfile host="app.diagrams.net" agent="Mozilla/5.0 (Windows NT 10.0; Win64; x64) AppleWebKit/537.36 (KHTML, like Gecko) Chrome/139.0.0.0 Safari/537.36 Edg/139.0.0.0" version="28.1.0" pages="3">
  <diagram name="HOME" id="Hj0xQRH5p_2SuMT_6Q4B">
    <mxGraphModel dx="1460" dy="986" grid="1" gridSize="10" guides="1" tooltips="1" connect="1" arrows="1" fold="1" page="1" pageScale="1" pageWidth="850" pageHeight="1100" math="0" shadow="0">
      <root>
        <mxCell id="0" />
        <mxCell id="1" parent="0" />
        <mxCell id="KP-S025Z_pr7VSaiK2tn-12" value="Welcome to Project 1 Website!" style="text;html=1;align=center;verticalAlign=middle;whiteSpace=wrap;rounded=0;" vertex="1" parent="1">
          <mxGeometry x="50" y="139" width="210" height="30" as="geometry" />
        </mxCell>
        <mxCell id="KP-S025Z_pr7VSaiK2tn-13" value="" style="shape=process;whiteSpace=wrap;html=1;backgroundOutline=1;size=0.14285714285714285;" vertex="1" parent="1">
          <mxGeometry x="120" y="199" width="280" height="110" as="geometry" />
        </mxCell>
        <mxCell id="KP-S025Z_pr7VSaiK2tn-14" value="" style="triangle;whiteSpace=wrap;html=1;" vertex="1" parent="1">
          <mxGeometry x="370" y="239" width="20" height="30" as="geometry" />
        </mxCell>
        <mxCell id="KP-S025Z_pr7VSaiK2tn-15" value="" style="triangle;whiteSpace=wrap;html=1;rotation=-180;" vertex="1" parent="1">
          <mxGeometry x="130" y="239" width="20" height="30" as="geometry" />
        </mxCell>
        <mxCell id="KP-S025Z_pr7VSaiK2tn-16" value="Image Carousel" style="text;html=1;align=center;verticalAlign=middle;whiteSpace=wrap;rounded=0;" vertex="1" parent="1">
          <mxGeometry x="205" y="239" width="110" height="30" as="geometry" />
        </mxCell>
        <mxCell id="KP-S025Z_pr7VSaiK2tn-17" value="Our Portfolio" style="text;html=1;align=center;verticalAlign=middle;whiteSpace=wrap;rounded=0;" vertex="1" parent="1">
          <mxGeometry x="110" y="169" width="90" height="30" as="geometry" />
        </mxCell>
        <mxCell id="KP-S025Z_pr7VSaiK2tn-18" value="Company Logo" style="text;html=1;align=center;verticalAlign=middle;whiteSpace=wrap;rounded=0;" vertex="1" parent="1">
          <mxGeometry x="70" y="20" width="90" height="30" as="geometry" />
        </mxCell>
        <mxCell id="KP-S025Z_pr7VSaiK2tn-19" value="&lt;h1 style=&quot;margin-top: 0px;&quot;&gt;About Us&lt;/h1&gt;&lt;p&gt;Lorem ipsum dolor sit amet, consectetur adipisicing elit, sed do eiusmod tempor incididunt ut labore et dolore magna aliqua.&lt;/p&gt;" style="text;html=1;whiteSpace=wrap;overflow=hidden;rounded=0;" vertex="1" parent="1">
          <mxGeometry x="90" y="350" width="310" height="120" as="geometry" />
        </mxCell>
        <mxCell id="KP-S025Z_pr7VSaiK2tn-20" value="HOME" style="text;html=1;align=center;verticalAlign=middle;whiteSpace=wrap;rounded=0;" vertex="1" parent="1">
          <mxGeometry x="70" y="60" width="90" height="30" as="geometry" />
        </mxCell>
        <mxCell id="KP-S025Z_pr7VSaiK2tn-21" value="Our Team" style="text;html=1;align=center;verticalAlign=middle;whiteSpace=wrap;rounded=0;" vertex="1" parent="1">
          <mxGeometry x="140" y="60" width="170" height="30" as="geometry" />
        </mxCell>
        <mxCell id="KP-S025Z_pr7VSaiK2tn-22" value="Contact Us" style="text;html=1;align=center;verticalAlign=middle;whiteSpace=wrap;rounded=0;" vertex="1" parent="1">
          <mxGeometry x="320" y="60" width="85" height="30" as="geometry" />
        </mxCell>
      </root>
    </mxGraphModel>
  </diagram>
  <diagram id="hDt1B3Fqx75372supEQX" name="Our Team">
    <mxGraphModel dx="1460" dy="986" grid="1" gridSize="10" guides="1" tooltips="1" connect="1" arrows="1" fold="1" page="1" pageScale="1" pageWidth="850" pageHeight="1100" math="0" shadow="0">
      <root>
        <mxCell id="0" />
        <mxCell id="1" parent="0" />
        <mxCell id="POr5eFxzZxNXdRmDamtK-1" value="Our Team" style="text;html=1;align=center;verticalAlign=middle;whiteSpace=wrap;rounded=0;" vertex="1" parent="1">
          <mxGeometry x="60" y="199" width="150" height="30" as="geometry" />
        </mxCell>
        <mxCell id="POr5eFxzZxNXdRmDamtK-2" value="Company Logo" style="text;html=1;align=center;verticalAlign=middle;whiteSpace=wrap;rounded=0;" vertex="1" parent="1">
          <mxGeometry x="80" y="80" width="90" height="30" as="geometry" />
        </mxCell>
        <mxCell id="POr5eFxzZxNXdRmDamtK-3" value="HOME" style="text;html=1;align=center;verticalAlign=middle;whiteSpace=wrap;rounded=0;" vertex="1" parent="1">
          <mxGeometry x="80" y="120" width="90" height="30" as="geometry" />
        </mxCell>
        <mxCell id="POr5eFxzZxNXdRmDamtK-4" value="Our Team" style="text;html=1;align=center;verticalAlign=middle;whiteSpace=wrap;rounded=0;" vertex="1" parent="1">
          <mxGeometry x="150" y="120" width="170" height="30" as="geometry" />
        </mxCell>
        <mxCell id="POr5eFxzZxNXdRmDamtK-5" value="Contact Us" style="text;html=1;align=center;verticalAlign=middle;whiteSpace=wrap;rounded=0;" vertex="1" parent="1">
          <mxGeometry x="330" y="120" width="85" height="30" as="geometry" />
        </mxCell>
        <mxCell id="POr5eFxzZxNXdRmDamtK-6" value="" style="verticalLabelPosition=bottom;verticalAlign=top;html=1;shape=mxgraph.basic.rect;fillColor2=none;strokeWidth=1;size=20;indent=5;" vertex="1" parent="1">
          <mxGeometry x="110" y="250" width="100" height="100" as="geometry" />
        </mxCell>
        <mxCell id="POr5eFxzZxNXdRmDamtK-7" value="Person Name&lt;div&gt;Title&lt;/div&gt;" style="text;html=1;align=center;verticalAlign=middle;whiteSpace=wrap;rounded=0;" vertex="1" parent="1">
          <mxGeometry x="110" y="350" width="100" height="30" as="geometry" />
        </mxCell>
        <mxCell id="POr5eFxzZxNXdRmDamtK-8" value="Person Name&lt;div&gt;Title&lt;/div&gt;" style="text;html=1;align=center;verticalAlign=middle;whiteSpace=wrap;rounded=0;" vertex="1" parent="1">
          <mxGeometry x="250" y="350" width="100" height="30" as="geometry" />
        </mxCell>
        <mxCell id="POr5eFxzZxNXdRmDamtK-9" value="" style="verticalLabelPosition=bottom;verticalAlign=top;html=1;shape=mxgraph.basic.rect;fillColor2=none;strokeWidth=1;size=20;indent=5;" vertex="1" parent="1">
          <mxGeometry x="250" y="250" width="100" height="100" as="geometry" />
        </mxCell>
        <mxCell id="POr5eFxzZxNXdRmDamtK-10" value="Person Name&lt;div&gt;Title&lt;/div&gt;" style="text;html=1;align=center;verticalAlign=middle;whiteSpace=wrap;rounded=0;" vertex="1" parent="1">
          <mxGeometry x="390" y="350" width="100" height="30" as="geometry" />
        </mxCell>
        <mxCell id="POr5eFxzZxNXdRmDamtK-11" value="" style="verticalLabelPosition=bottom;verticalAlign=top;html=1;shape=mxgraph.basic.rect;fillColor2=none;strokeWidth=1;size=20;indent=5;" vertex="1" parent="1">
          <mxGeometry x="390" y="250" width="100" height="100" as="geometry" />
        </mxCell>
        <mxCell id="POr5eFxzZxNXdRmDamtK-12" value="" style="verticalLabelPosition=bottom;verticalAlign=top;html=1;shape=mxgraph.basic.rect;fillColor2=none;strokeWidth=1;size=20;indent=5;" vertex="1" parent="1">
          <mxGeometry x="390" y="410" width="100" height="100" as="geometry" />
        </mxCell>
        <mxCell id="POr5eFxzZxNXdRmDamtK-13" value="" style="verticalLabelPosition=bottom;verticalAlign=top;html=1;shape=mxgraph.basic.rect;fillColor2=none;strokeWidth=1;size=20;indent=5;" vertex="1" parent="1">
          <mxGeometry x="250" y="410" width="100" height="100" as="geometry" />
        </mxCell>
        <mxCell id="POr5eFxzZxNXdRmDamtK-14" value="" style="verticalLabelPosition=bottom;verticalAlign=top;html=1;shape=mxgraph.basic.rect;fillColor2=none;strokeWidth=1;size=20;indent=5;" vertex="1" parent="1">
          <mxGeometry x="110" y="410" width="100" height="100" as="geometry" />
        </mxCell>
        <mxCell id="POr5eFxzZxNXdRmDamtK-15" value="Person Name&lt;div&gt;Title&lt;/div&gt;" style="text;html=1;align=center;verticalAlign=middle;whiteSpace=wrap;rounded=0;" vertex="1" parent="1">
          <mxGeometry x="110" y="510" width="100" height="30" as="geometry" />
        </mxCell>
        <mxCell id="POr5eFxzZxNXdRmDamtK-16" value="Person Name&lt;div&gt;Title&lt;/div&gt;" style="text;html=1;align=center;verticalAlign=middle;whiteSpace=wrap;rounded=0;" vertex="1" parent="1">
          <mxGeometry x="250" y="510" width="100" height="30" as="geometry" />
        </mxCell>
        <mxCell id="POr5eFxzZxNXdRmDamtK-17" value="Person Name&lt;div&gt;Title&lt;/div&gt;" style="text;html=1;align=center;verticalAlign=middle;whiteSpace=wrap;rounded=0;" vertex="1" parent="1">
          <mxGeometry x="390" y="510" width="100" height="30" as="geometry" />
        </mxCell>
        <mxCell id="POr5eFxzZxNXdRmDamtK-18" value="" style="verticalLabelPosition=bottom;verticalAlign=top;html=1;shape=mxgraph.basic.rect;fillColor2=none;strokeWidth=1;size=20;indent=5;" vertex="1" parent="1">
          <mxGeometry x="110" y="570" width="100" height="100" as="geometry" />
        </mxCell>
        <mxCell id="POr5eFxzZxNXdRmDamtK-19" value="Person Name&lt;div&gt;Title&lt;/div&gt;" style="text;html=1;align=center;verticalAlign=middle;whiteSpace=wrap;rounded=0;" vertex="1" parent="1">
          <mxGeometry x="110" y="670" width="100" height="30" as="geometry" />
        </mxCell>
      </root>
    </mxGraphModel>
  </diagram>
  <diagram id="ABkRLNcX87dJL5ZAVwsq" name="Contact Us">
    <mxGraphModel dx="1022" dy="690" grid="1" gridSize="10" guides="1" tooltips="1" connect="1" arrows="1" fold="1" page="1" pageScale="1" pageWidth="1100" pageHeight="850" math="0" shadow="0">
      <root>
        <mxCell id="0" />
        <mxCell id="1" parent="0" />
        <mxCell id="CMP896qiGAO3qNwdijIe-1" value="Contact Us" style="text;html=1;align=center;verticalAlign=middle;whiteSpace=wrap;rounded=0;" vertex="1" parent="1">
          <mxGeometry x="50" y="159" width="150" height="30" as="geometry" />
        </mxCell>
        <mxCell id="CMP896qiGAO3qNwdijIe-2" value="Company Logo" style="text;html=1;align=center;verticalAlign=middle;whiteSpace=wrap;rounded=0;" vertex="1" parent="1">
          <mxGeometry x="70" y="40" width="90" height="30" as="geometry" />
        </mxCell>
        <mxCell id="CMP896qiGAO3qNwdijIe-3" value="HOME" style="text;html=1;align=center;verticalAlign=middle;whiteSpace=wrap;rounded=0;" vertex="1" parent="1">
          <mxGeometry x="70" y="80" width="90" height="30" as="geometry" />
        </mxCell>
        <mxCell id="CMP896qiGAO3qNwdijIe-4" value="Our Team" style="text;html=1;align=center;verticalAlign=middle;whiteSpace=wrap;rounded=0;" vertex="1" parent="1">
          <mxGeometry x="140" y="80" width="170" height="30" as="geometry" />
        </mxCell>
        <mxCell id="CMP896qiGAO3qNwdijIe-5" value="Contact Us" style="text;html=1;align=center;verticalAlign=middle;whiteSpace=wrap;rounded=0;" vertex="1" parent="1">
          <mxGeometry x="320" y="80" width="85" height="30" as="geometry" />
        </mxCell>
        <mxCell id="CMP896qiGAO3qNwdijIe-6" value="" style="verticalLabelPosition=bottom;verticalAlign=top;html=1;shape=mxgraph.basic.rect;fillColor2=none;strokeWidth=1;size=20;indent=5;" vertex="1" parent="1">
          <mxGeometry x="210" y="210" width="190" height="30" as="geometry" />
        </mxCell>
        <mxCell id="CMP896qiGAO3qNwdijIe-7" value="Your Name" style="text;html=1;align=center;verticalAlign=middle;whiteSpace=wrap;rounded=0;" vertex="1" parent="1">
          <mxGeometry x="50" y="210" width="210" height="30" as="geometry" />
        </mxCell>
        <mxCell id="CMP896qiGAO3qNwdijIe-8" value="Your Email" style="text;html=1;align=center;verticalAlign=middle;whiteSpace=wrap;rounded=0;" vertex="1" parent="1">
          <mxGeometry x="50" y="250" width="210" height="30" as="geometry" />
        </mxCell>
        <mxCell id="CMP896qiGAO3qNwdijIe-9" value="Message" style="text;html=1;align=center;verticalAlign=middle;whiteSpace=wrap;rounded=0;" vertex="1" parent="1">
          <mxGeometry x="50" y="290" width="210" height="30" as="geometry" />
        </mxCell>
        <mxCell id="CMP896qiGAO3qNwdijIe-10" value="" style="verticalLabelPosition=bottom;verticalAlign=top;html=1;shape=mxgraph.basic.rect;fillColor2=none;strokeWidth=1;size=20;indent=5;" vertex="1" parent="1">
          <mxGeometry x="210" y="250" width="190" height="30" as="geometry" />
        </mxCell>
        <mxCell id="CMP896qiGAO3qNwdijIe-11" value="" style="verticalLabelPosition=bottom;verticalAlign=top;html=1;shape=mxgraph.basic.rect;fillColor2=none;strokeWidth=1;size=20;indent=5;" vertex="1" parent="1">
          <mxGeometry x="210" y="290" width="190" height="140" as="geometry" />
        </mxCell>
        <mxCell id="CMP896qiGAO3qNwdijIe-12" value="" style="verticalLabelPosition=bottom;verticalAlign=top;html=1;shape=mxgraph.basic.rect;fillColor2=none;strokeWidth=1;size=20;indent=5;" vertex="1" parent="1">
          <mxGeometry x="240" y="460" width="130" height="30" as="geometry" />
        </mxCell>
        <mxCell id="CMP896qiGAO3qNwdijIe-13" value="SUBMIT" style="text;html=1;align=center;verticalAlign=middle;whiteSpace=wrap;rounded=0;" vertex="1" parent="1">
          <mxGeometry x="200" y="460" width="210" height="30" as="geometry" />
        </mxCell>
      </root>
    </mxGraphModel>
  </diagram>
</mxfile>
